<svg xmlns="http://www.w3.org/2000/svg" width="116.02" height="28" viewBox="0 0 116.02 28"><defs><style>.cls-1{fill:#0c2840;}.cls-2{fill:#00c9ff;}</style></defs><g id="Layer_2" data-name="Layer 2"><g id="Layer_1-2" data-name="Layer 1"><g id="Layer_2-2" data-name="Layer 2"><g id="Layer_1-2-2" data-name="Layer 1-2"><path class="cls-1" d="M14.8,6.76a6.92,6.92,0,0,0-2.42-1.69,8,8,0,0,0-3.13-.6,5.57,5.57,0,0,0-1.57.23,6.79,6.79,0,0,0-1.36.58,5.37,5.37,0,0,0-1.09.8,4.73,4.73,0,0,0-.75.86H4.42V4.86H0V28H4.8V18.93h.06A4.54,4.54,0,0,0,7,20.53,8.11,8.11,0,0,0,9.8,21a6.28,6.28,0,0,0,3-.7A6.81,6.81,0,0,0,15,18.44a8.66,8.66,0,0,0,1.41-2.67,10.29,10.29,0,0,0,.5-3.16,9.62,9.62,0,0,0-.55-3.28A7.46,7.46,0,0,0,14.8,6.76Zm-3.71,8.86a3.66,3.66,0,0,1-2.83,1.1,3.68,3.68,0,0,1-2.84-1.1,4.11,4.11,0,0,1-1-2.88,4.12,4.12,0,0,1,1-2.89,3.68,3.68,0,0,1,2.84-1.1,3.66,3.66,0,0,1,2.83,1.1,4.12,4.12,0,0,1,1,2.89A4.11,4.11,0,0,1,11.09,15.62Z"/><rect class="cls-1" x="19.34" y="4.86" width="4.8" height="15.75"/><polygon class="cls-1" points="26.75 20.61 31.55 20.61 31.55 12.64 31.61 12.64 36.86 20.61 42.91 20.61 36.57 11.96 42.75 4.86 36.86 4.86 31.55 11.08 31.55 0 26.75 0 26.75 20.61"/><path class="cls-1" d="M54.31,12a7.57,7.57,0,0,0-2-.76l-2-.45a7.2,7.2,0,0,1-1.51-.49.91.91,0,0,1-.59-.86,1,1,0,0,1,.58-1A2.54,2.54,0,0,1,50,8.15,3.4,3.4,0,0,1,52.86,9.5L55.8,6.55a5.65,5.65,0,0,0-2.66-1.62A10.8,10.8,0,0,0,50,4.47a9.69,9.69,0,0,0-2.4.31,6.26,6.26,0,0,0-2.1,1A5,5,0,0,0,44,7.43a4.9,4.9,0,0,0-.56,2.4,4.33,4.33,0,0,0,.59,2.38,4.17,4.17,0,0,0,1.51,1.38,8.42,8.42,0,0,0,2,.73l2,.45a6.28,6.28,0,0,1,1.51.52,1,1,0,0,1,.59.92.9.9,0,0,1-.67.89,4.6,4.6,0,0,1-1.51.25,4,4,0,0,1-1.9-.44A4.9,4.9,0,0,1,46,15.59l-2.91,3.27a6.13,6.13,0,0,0,2.81,1.67,12.24,12.24,0,0,0,3.3.47,13.39,13.39,0,0,0,2.53-.24,7.25,7.25,0,0,0,2.3-.85,5.08,5.08,0,0,0,1.68-1.58,4.4,4.4,0,0,0,.66-2.52,4.33,4.33,0,0,0-.59-2.38A4.56,4.56,0,0,0,54.31,12Z"/><path class="cls-1" d="M71.91,6.72A6.27,6.27,0,0,0,69.6,5.06a7.54,7.54,0,0,0-3-.59,9.51,9.51,0,0,0-3.38.59,7.8,7.8,0,0,0-4.59,4.27A8.34,8.34,0,0,0,58,12.74a8.26,8.26,0,0,0,.67,3.4,8.09,8.09,0,0,0,1.84,2.61,8.26,8.26,0,0,0,2.75,1.67A9.73,9.73,0,0,0,66.6,21a8.68,8.68,0,0,0,3.65-.81,7.78,7.78,0,0,0,2.91-2.3l-3.36-2.5a5.64,5.64,0,0,1-1.42,1.38,3.61,3.61,0,0,1-2,.54A3.5,3.5,0,0,1,64,16.48a3.83,3.83,0,0,1-1.25-2.22H73.88V12.74a10.38,10.38,0,0,0-.52-3.41A7.7,7.7,0,0,0,71.91,6.72ZM69.08,11H62.74a3,3,0,0,1,.94-2,3.58,3.58,0,0,1,1-.67A3.65,3.65,0,0,1,66.13,8a2.87,2.87,0,0,1,3,2.73V11Z"/><rect class="cls-1" x="76.07" width="4.8" height="20.61"/><rect class="cls-1" x="83.25" width="4.8" height="20.61"/><path class="cls-1" d="M103.59,6.58A5,5,0,0,0,101.41,5a9.52,9.52,0,0,0-3.47-.54,11.17,11.17,0,0,0-3.71.63A8.82,8.82,0,0,0,91.09,7l2.56,2.66a5.8,5.8,0,0,1,1.74-1.38,4.76,4.76,0,0,1,2.16-.5,3.21,3.21,0,0,1,2.16.76,2.56,2.56,0,0,1,.92,2.06H98.47a23.06,23.06,0,0,0-2.34.19,14.49,14.49,0,0,0-2.26.51,6.68,6.68,0,0,0-1.93.95,4.51,4.51,0,0,0-1.35,1.56,4.79,4.79,0,0,0-.49,2.3,4.66,4.66,0,0,0,.45,2.11,4.48,4.48,0,0,0,1.21,1.52,5.21,5.21,0,0,0,1.78.92,7.32,7.32,0,0,0,4.89-.24,4.45,4.45,0,0,0,2.13-1.82h.07v2H105v-8a16.37,16.37,0,0,0-.32-3.49A6.16,6.16,0,0,0,103.59,6.58Zm-3,8.17a2.64,2.64,0,0,1-.31,1.29,2.72,2.72,0,0,1-.81.91,3.92,3.92,0,0,1-1.17.55,4.8,4.8,0,0,1-1.36.19,3.1,3.1,0,0,1-1.54-.42A1.38,1.38,0,0,1,94.71,16a1.57,1.57,0,0,1,.52-1.27A3.55,3.55,0,0,1,96.51,14a7,7,0,0,1,1.57-.27h2.55Z"/><path class="cls-1" d="M107,0V16.24a4.89,4.89,0,0,0,.43,2.2,3.81,3.81,0,0,0,1.2,1.47,5.14,5.14,0,0,0,1.79.83,8.91,8.91,0,0,0,2.24.26,13.73,13.73,0,0,0,1.7-.1,6.69,6.69,0,0,0,1.66-.39V16.46a1.73,1.73,0,0,1-.94.38c-.33,0-.67.07-1,.08a2.88,2.88,0,0,1-1.23-.21,1.44,1.44,0,0,1-.69-.6,2.35,2.35,0,0,1-.29-.93,11.66,11.66,0,0,1-.06-1.18V8.75H116V4.86h-4.22V0Z"/><rect class="cls-2" x="14.54" width="4.8" height="4.86"/></g></g></g></g></svg>