<svg xmlns="http://www.w3.org/2000/svg" viewBox="0 0 116 28"><defs><style>.cls-1{fill:#0c2840;}.cls-2{fill:#00c9ff;}</style></defs><g id="Layer_2" data-name="Layer 2"><g id="Layer_1-2" data-name="Layer 1"><path class="cls-1" d="M14.8,6.76a6.91,6.91,0,0,0-2.42-1.69,7.9,7.9,0,0,0-3.13-.6,5.32,5.32,0,0,0-1.57.23,6.63,6.63,0,0,0-1.36.58,5.39,5.39,0,0,0-1.09.8,4.8,4.8,0,0,0-.75.86H4.42V4.86H0V28H4.8V18.93h.06A4.55,4.55,0,0,0,7,20.53a8.27,8.27,0,0,0,2.8.47,6.21,6.21,0,0,0,3-.7A6.86,6.86,0,0,0,15,18.44a8.74,8.74,0,0,0,1.41-2.67,10.1,10.1,0,0,0,.5-3.16,9.6,9.6,0,0,0-.55-3.28A7.49,7.49,0,0,0,14.8,6.76Zm-3.71,8.86a3.63,3.63,0,0,1-2.83,1.1,3.65,3.65,0,0,1-2.84-1.1,4.11,4.11,0,0,1-1-2.88,4.13,4.13,0,0,1,1-2.89,3.68,3.68,0,0,1,2.84-1.1,3.66,3.66,0,0,1,2.83,1.1,4.14,4.14,0,0,1,1,2.89A4.11,4.11,0,0,1,11.09,15.62Z"/><rect class="cls-1" x="19.34" y="4.86" width="4.8" height="15.75"/><polygon class="cls-1" points="26.75 20.61 31.55 20.61 31.55 12.64 31.61 12.64 36.86 20.61 42.91 20.61 36.57 11.96 42.75 4.86 36.86 4.86 31.55 11.08 31.55 0 26.75 0 26.75 20.61"/><path class="cls-1" d="M54.31,12a7.46,7.46,0,0,0-2-.76l-2-.45a7.44,7.44,0,0,1-1.51-.49.91.91,0,0,1-.59-.86,1,1,0,0,1,.58-1,2.51,2.51,0,0,1,1.18-.29A3.39,3.39,0,0,1,52.86,9.5L55.8,6.55a5.72,5.72,0,0,0-2.66-1.62A10.83,10.83,0,0,0,50,4.47a9.75,9.75,0,0,0-2.4.31,6.31,6.31,0,0,0-2.1,1,5,5,0,0,0-1.47,1.65,4.89,4.89,0,0,0-.56,2.4,4.28,4.28,0,0,0,.59,2.38,4.24,4.24,0,0,0,1.51,1.38,8.61,8.61,0,0,0,2,.73l1.95.45a6.3,6.3,0,0,1,1.51.52,1,1,0,0,1,.59.92.9.9,0,0,1-.67.89,4.47,4.47,0,0,1-1.51.25,4,4,0,0,1-1.9-.44A4.81,4.81,0,0,1,46,15.59l-2.91,3.27a6.1,6.1,0,0,0,2.81,1.67,12.23,12.23,0,0,0,3.3.47,13.79,13.79,0,0,0,2.53-.24,7.34,7.34,0,0,0,2.3-.85,5.08,5.08,0,0,0,1.68-1.58,4.45,4.45,0,0,0,.66-2.52,4.3,4.3,0,0,0-.59-2.38A4.52,4.52,0,0,0,54.31,12Z"/><path class="cls-1" d="M71.91,6.72A6.22,6.22,0,0,0,69.6,5.06a7.53,7.53,0,0,0-3-.59,9.73,9.73,0,0,0-3.38.59,8.07,8.07,0,0,0-2.75,1.66,8,8,0,0,0-1.84,2.61,8.34,8.34,0,0,0-.67,3.41,8.32,8.32,0,0,0,.67,3.4,8,8,0,0,0,1.84,2.61,8.25,8.25,0,0,0,2.75,1.67,9.72,9.72,0,0,0,3.38.58,8.66,8.66,0,0,0,3.65-.81,7.74,7.74,0,0,0,2.91-2.3l-3.36-2.5a5.46,5.46,0,0,1-1.42,1.38,3.56,3.56,0,0,1-2,.54A3.51,3.51,0,0,1,64,16.48a3.84,3.84,0,0,1-1.25-2.22H73.88V12.74a10.43,10.43,0,0,0-.52-3.41A7.7,7.7,0,0,0,71.91,6.72ZM69.08,11H62.74a3,3,0,0,1,.94-2,3.58,3.58,0,0,1,1-.67A3.65,3.65,0,0,1,66.13,8a2.87,2.87,0,0,1,3,3Z"/><rect class="cls-1" x="76.07" width="4.8" height="20.61"/><rect class="cls-1" x="83.25" width="4.8" height="20.61"/><path class="cls-1" d="M103.59,6.58A5,5,0,0,0,101.41,5a9.5,9.5,0,0,0-3.47-.54,11.08,11.08,0,0,0-3.71.63A9,9,0,0,0,91.09,7l2.56,2.66a5.86,5.86,0,0,1,1.74-1.38,4.77,4.77,0,0,1,2.16-.5,3.22,3.22,0,0,1,2.16.76,2.54,2.54,0,0,1,.92,2.06l-2.16,0a23.06,23.06,0,0,0-2.34.19,14,14,0,0,0-2.26.51,6.44,6.44,0,0,0-1.93.95,4.52,4.52,0,0,0-1.35,1.56,4.86,4.86,0,0,0-.49,2.3,4.71,4.71,0,0,0,.45,2.11,4.5,4.5,0,0,0,1.21,1.52,5.19,5.19,0,0,0,1.78.92,7,7,0,0,0,2.09.31,7.13,7.13,0,0,0,2.8-.55,4.48,4.48,0,0,0,2.13-1.82h.07v2H105v-8a16.53,16.53,0,0,0-.32-3.49A6.1,6.1,0,0,0,103.59,6.58Zm-3,8.17a2.57,2.57,0,0,1-.31,1.29,2.63,2.63,0,0,1-.81.91,4,4,0,0,1-1.17.55,4.75,4.75,0,0,1-1.36.19,3.08,3.08,0,0,1-1.54-.42A1.38,1.38,0,0,1,94.71,16a1.6,1.6,0,0,1,.52-1.27A3.57,3.57,0,0,1,96.51,14a6.88,6.88,0,0,1,1.57-.27c.55,0,1,0,1.36,0h1.19Z"/><path class="cls-1" d="M107,0V16.24a5,5,0,0,0,.43,2.2,3.86,3.86,0,0,0,1.2,1.47,5,5,0,0,0,1.79.83,9.24,9.24,0,0,0,2.24.26,14.2,14.2,0,0,0,1.7-.1,6.69,6.69,0,0,0,1.66-.39V16.46a1.7,1.7,0,0,1-.94.38,9.25,9.25,0,0,1-1,.08,3,3,0,0,1-1.23-.21,1.46,1.46,0,0,1-.69-.6,2.37,2.37,0,0,1-.29-.93,10.56,10.56,0,0,1-.06-1.18V8.75H116V4.86h-4.22V0Z"/><rect class="cls-2" x="14.54" width="4.8" height="4.86"/></g></g></svg>